<?xml version="1.0" standalone="no"?>
<!DOCTYPE svg PUBLIC "-//W3C//DTD SVG 20010904//EN"
 "http://www.w3.org/TR/2001/REC-SVG-20010904/DTD/svg10.dtd">
<svg version="1.0" xmlns="http://www.w3.org/2000/svg"
 width="900.000000pt" height="900.000000pt" viewBox="0 0 900.000000 900.000000"
 preserveAspectRatio="xMidYMid meet">

<g transform="translate(0.000000,900.000000) scale(0.100000,-0.100000)"
fill="#000000" stroke="none">
<path d="M4326 6146 c-114 -42 -177 -184 -130 -294 74 -179 334 -179 408 0 40
94 1 218 -86 271 -55 34 -135 44 -192 23z"/>
<path d="M5751 5954 c-226 -38 -575 -204 -688 -327 -50 -55 -63 -79 -182 -331
-189 -397 -375 -565 -617 -555 l-84 4 0 -81 c0 -76 2 -82 23 -88 69 -18 243 8
335 51 93 44 167 123 420 453 19 25 54 87 78 138 79 170 190 323 274 376 42
27 337 149 398 166 69 18 192 28 255 21 l57 -7 0 98 0 98 -92 -1 c-51 -1 -131
-7 -177 -15z"/>
<path d="M5803 5699 c-186 -27 -376 -100 -466 -179 -85 -75 -175 -198 -233
-319 -62 -127 -110 -202 -260 -401 -149 -199 -219 -267 -327 -320 -134 -67
-226 -66 -303 2 l-35 31 3 -109 3 -109 53 -28 c73 -39 142 -45 229 -19 87 27
164 80 281 195 207 203 348 400 423 590 82 207 176 319 316 377 119 50 234 70
401 70 l142 0 0 115 0 115 -82 -1 c-46 -1 -111 -5 -145 -10z"/>
<path d="M4180 5555 l0 -128 63 5 c71 6 135 34 185 82 31 29 39 31 118 35 l84
3 0 53 0 52 -132 7 c-73 3 -175 9 -225 13 l-93 6 0 -128z"/>
<path d="M4505 5498 c-34 -12 -112 -64 -165 -108 -28 -23 -49 -31 -98 -36
l-62 -7 0 -73 0 -74 25 10 c51 19 103 50 145 85 68 57 112 75 201 82 l80 6 -3
61 -3 61 -45 2 c-25 1 -58 -3 -75 -9z"/>
<path d="M5700 5388 c-143 -50 -319 -188 -404 -317 -24 -36 -88 -145 -141
-241 -156 -280 -244 -401 -401 -550 -93 -87 -189 -155 -262 -183 -77 -30 -225
-18 -284 24 l-28 20 0 -165 0 -165 53 -6 c178 -22 409 70 640 256 103 82 126
113 266 356 234 406 353 557 497 627 87 43 185 47 298 12 46 -14 87 -26 90
-26 3 0 6 74 6 164 l0 164 -52 22 c-79 35 -193 38 -278 8z"/>
<path d="M3990 5356 c-81 -18 -127 -35 -205 -74 -176 -87 -307 -217 -395 -391
-168 -335 -109 -731 149 -1005 130 -136 335 -242 506 -260 33 -4 75 -9 93 -12
l32 -5 0 210 0 210 -37 6 c-63 10 -161 44 -201 69 -60 37 -137 122 -166 182
-144 294 31 618 362 669 l42 7 0 204 0 204 -62 -1 c-35 -1 -88 -7 -118 -13z"/>
<path d="M4538 5336 c-48 -10 -67 -21 -116 -68 -69 -66 -126 -97 -193 -105
l-49 -6 0 -63 0 -64 30 0 c52 0 135 38 186 86 67 62 110 91 175 113 l54 19 3
51 c3 58 5 58 -90 37z"/>
<path d="M4570 5183 c-37 -15 -152 -97 -170 -123 -33 -46 -105 -88 -166 -96
l-54 -6 0 -64 0 -63 43 -6 c61 -9 90 6 186 100 47 46 115 101 151 123 l65 39
3 52 c3 48 2 51 -20 50 -13 0 -30 -3 -38 -6z"/>
<path d="M5743 4986 c-70 -32 -173 -154 -388 -461 -383 -546 -544 -715 -793
-833 -71 -34 -84 -37 -167 -37 -74 0 -101 5 -152 26 l-63 27 0 -215 0 -215 42
7 c139 24 394 113 516 181 113 63 327 283 517 532 43 56 80 102 81 102 2 0
-11 -24 -30 -52 -44 -70 -109 -200 -147 -295 -43 -109 -98 -331 -105 -422 l-5
-76 33 86 c43 110 125 254 254 450 134 204 208 269 442 392 l121 63 -52 52
c-52 51 -159 112 -197 112 -20 0 -215 -185 -279 -265 l-32 -40 29 45 c16 25
62 108 103 184 106 199 172 266 292 297 63 15 101 1 190 -73 l72 -61 3 208 c2
151 -1 211 -10 222 -46 55 -207 90 -275 59z"/>
<path d="M5920 4013 c-88 -14 -281 -96 -400 -168 -140 -85 -268 -257 -353
-475 -45 -116 -41 -117 37 -1 81 121 152 211 167 211 5 0 12 -12 15 -27 13
-56 101 -123 162 -123 36 0 82 34 142 106 50 58 70 111 70 183 0 22 5 52 10
67 10 26 13 27 67 21 74 -8 90 -24 75 -74 -13 -43 -99 -190 -152 -261 -74 -98
-167 -143 -301 -145 -48 -1 -66 -4 -58 -12 18 -18 168 -8 272 19 201 53 282
123 344 294 21 57 25 92 30 230 l6 162 -54 -1 c-30 -1 -65 -4 -79 -6z m-322
-299 c40 -27 22 -74 -28 -74 -50 0 -68 47 -28 74 12 9 25 16 28 16 3 0 16 -7
28 -16z"/>
<path d="M1943 3680 c-282 -102 -515 -189 -518 -192 -9 -9 79 -219 144 -343
204 -388 479 -717 823 -981 l97 -74 315 451 c174 247 316 452 316 453 0 2 -39
35 -87 74 -228 181 -427 442 -538 703 l-40 95 -512 -186z"/>
<path d="M2991 2439 c-149 -257 -272 -474 -273 -481 -4 -16 224 -132 387 -196
72 -28 185 -66 252 -86 124 -36 300 -73 306 -65 11 13 188 1072 181 1078 -5 4
-45 16 -89 26 -118 26 -266 80 -387 139 l-107 53 -270 -468z"/>
</g>
</svg>
